<?xml version="1.0" encoding="UTF-8"?>
<!-- Encoded URL: https://www.reisti.com/products/hole-saw/hss#manual | Error correction: Q | Quiet zone: 4 modules -->
<svg xmlns="http://www.w3.org/2000/svg" width="25mm" height="25mm" viewBox="0 0 47 47" shape-rendering="crispEdges">
  <title>REISTI manual QR code</title>
  <rect width="47" height="47" fill="#fff"/>
  <path d="M5 41h1v1h-1zM6 41h1v1h-1zM7 41h1v1h-1zM8 41h1v1h-1zM9 41h1v1h-1zM10 41h1v1h-1zM11 41h1v1h-1zM13 41h1v1h-1zM14 41h1v1h-1zM16 41h1v1h-1zM17 41h1v1h-1zM19 41h1v1h-1zM20 41h1v1h-1zM21 41h1v1h-1zM23 41h1v1h-1zM24 41h1v1h-1zM25 41h1v1h-1zM27 41h1v1h-1zM29 41h1v1h-1zM30 41h1v1h-1zM35 41h1v1h-1zM36 41h1v1h-1zM37 41h1v1h-1zM38 41h1v1h-1zM39 41h1v1h-1zM40 41h1v1h-1zM41 41h1v1h-1zM5 40h1v1h-1zM11 40h1v1h-1zM17 40h1v1h-1zM19 40h1v1h-1zM20 40h1v1h-1zM25 40h1v1h-1zM27 40h1v1h-1zM31 40h1v1h-1zM32 40h1v1h-1zM33 40h1v1h-1zM35 40h1v1h-1zM41 40h1v1h-1zM5 39h1v1h-1zM7 39h1v1h-1zM8 39h1v1h-1zM9 39h1v1h-1zM11 39h1v1h-1zM14 39h1v1h-1zM16 39h1v1h-1zM24 39h1v1h-1zM26 39h1v1h-1zM29 39h1v1h-1zM31 39h1v1h-1zM32 39h1v1h-1zM33 39h1v1h-1zM35 39h1v1h-1zM37 39h1v1h-1zM38 39h1v1h-1zM39 39h1v1h-1zM41 39h1v1h-1zM5 38h1v1h-1zM7 38h1v1h-1zM8 38h1v1h-1zM9 38h1v1h-1zM11 38h1v1h-1zM15 38h1v1h-1zM16 38h1v1h-1zM18 38h1v1h-1zM21 38h1v1h-1zM22 38h1v1h-1zM24 38h1v1h-1zM25 38h1v1h-1zM27 38h1v1h-1zM29 38h1v1h-1zM30 38h1v1h-1zM31 38h1v1h-1zM35 38h1v1h-1zM37 38h1v1h-1zM38 38h1v1h-1zM39 38h1v1h-1zM41 38h1v1h-1zM5 37h1v1h-1zM7 37h1v1h-1zM8 37h1v1h-1zM9 37h1v1h-1zM11 37h1v1h-1zM13 37h1v1h-1zM15 37h1v1h-1zM17 37h1v1h-1zM18 37h1v1h-1zM21 37h1v1h-1zM23 37h1v1h-1zM25 37h1v1h-1zM26 37h1v1h-1zM27 37h1v1h-1zM28 37h1v1h-1zM31 37h1v1h-1zM35 37h1v1h-1zM37 37h1v1h-1zM38 37h1v1h-1zM39 37h1v1h-1zM41 37h1v1h-1zM5 36h1v1h-1zM11 36h1v1h-1zM13 36h1v1h-1zM14 36h1v1h-1zM15 36h1v1h-1zM20 36h1v1h-1zM22 36h1v1h-1zM23 36h1v1h-1zM24 36h1v1h-1zM26 36h1v1h-1zM27 36h1v1h-1zM32 36h1v1h-1zM33 36h1v1h-1zM35 36h1v1h-1zM41 36h1v1h-1zM5 35h1v1h-1zM6 35h1v1h-1zM7 35h1v1h-1zM8 35h1v1h-1zM9 35h1v1h-1zM10 35h1v1h-1zM11 35h1v1h-1zM13 35h1v1h-1zM15 35h1v1h-1zM17 35h1v1h-1zM19 35h1v1h-1zM21 35h1v1h-1zM23 35h1v1h-1zM25 35h1v1h-1zM27 35h1v1h-1zM29 35h1v1h-1zM31 35h1v1h-1zM33 35h1v1h-1zM35 35h1v1h-1zM36 35h1v1h-1zM37 35h1v1h-1zM38 35h1v1h-1zM39 35h1v1h-1zM40 35h1v1h-1zM41 35h1v1h-1zM14 34h1v1h-1zM16 34h1v1h-1zM17 34h1v1h-1zM18 34h1v1h-1zM19 34h1v1h-1zM21 34h1v1h-1zM22 34h1v1h-1zM24 34h1v1h-1zM26 34h1v1h-1zM28 34h1v1h-1zM31 34h1v1h-1zM33 34h1v1h-1zM6 33h1v1h-1zM7 33h1v1h-1zM8 33h1v1h-1zM9 33h1v1h-1zM10 33h1v1h-1zM11 33h1v1h-1zM12 33h1v1h-1zM14 33h1v1h-1zM17 33h1v1h-1zM18 33h1v1h-1zM20 33h1v1h-1zM21 33h1v1h-1zM22 33h1v1h-1zM24 33h1v1h-1zM27 33h1v1h-1zM28 33h1v1h-1zM29 33h1v1h-1zM36 33h1v1h-1zM37 33h1v1h-1zM41 33h1v1h-1zM5 32h1v1h-1zM7 32h1v1h-1zM9 32h1v1h-1zM10 32h1v1h-1zM12 32h1v1h-1zM14 32h1v1h-1zM15 32h1v1h-1zM18 32h1v1h-1zM23 32h1v1h-1zM27 32h1v1h-1zM28 32h1v1h-1zM30 32h1v1h-1zM31 32h1v1h-1zM32 32h1v1h-1zM33 32h1v1h-1zM36 32h1v1h-1zM39 32h1v1h-1zM40 32h1v1h-1zM5 31h1v1h-1zM6 31h1v1h-1zM11 31h1v1h-1zM14 31h1v1h-1zM16 31h1v1h-1zM21 31h1v1h-1zM22 31h1v1h-1zM24 31h1v1h-1zM25 31h1v1h-1zM26 31h1v1h-1zM30 31h1v1h-1zM31 31h1v1h-1zM35 31h1v1h-1zM36 31h1v1h-1zM40 31h1v1h-1zM41 31h1v1h-1zM5 30h1v1h-1zM6 30h1v1h-1zM9 30h1v1h-1zM17 30h1v1h-1zM20 30h1v1h-1zM23 30h1v1h-1zM24 30h1v1h-1zM26 30h1v1h-1zM28 30h1v1h-1zM31 30h1v1h-1zM33 30h1v1h-1zM35 30h1v1h-1zM36 30h1v1h-1zM41 30h1v1h-1zM6 29h1v1h-1zM9 29h1v1h-1zM10 29h1v1h-1zM11 29h1v1h-1zM14 29h1v1h-1zM17 29h1v1h-1zM22 29h1v1h-1zM27 29h1v1h-1zM28 29h1v1h-1zM29 29h1v1h-1zM30 29h1v1h-1zM31 29h1v1h-1zM34 29h1v1h-1zM35 29h1v1h-1zM37 29h1v1h-1zM38 29h1v1h-1zM39 29h1v1h-1zM40 29h1v1h-1zM41 29h1v1h-1zM8 28h1v1h-1zM9 28h1v1h-1zM10 28h1v1h-1zM15 28h1v1h-1zM16 28h1v1h-1zM17 28h1v1h-1zM22 28h1v1h-1zM23 28h1v1h-1zM27 28h1v1h-1zM28 28h1v1h-1zM29 28h1v1h-1zM30 28h1v1h-1zM31 28h1v1h-1zM34 28h1v1h-1zM36 28h1v1h-1zM38 28h1v1h-1zM39 28h1v1h-1zM40 28h1v1h-1zM5 27h1v1h-1zM6 27h1v1h-1zM9 27h1v1h-1zM10 27h1v1h-1zM11 27h1v1h-1zM12 27h1v1h-1zM14 27h1v1h-1zM16 27h1v1h-1zM17 27h1v1h-1zM18 27h1v1h-1zM20 27h1v1h-1zM21 27h1v1h-1zM24 27h1v1h-1zM25 27h1v1h-1zM27 27h1v1h-1zM30 27h1v1h-1zM31 27h1v1h-1zM32 27h1v1h-1zM33 27h1v1h-1zM34 27h1v1h-1zM38 27h1v1h-1zM40 27h1v1h-1zM41 27h1v1h-1zM6 26h1v1h-1zM7 26h1v1h-1zM8 26h1v1h-1zM9 26h1v1h-1zM12 26h1v1h-1zM13 26h1v1h-1zM14 26h1v1h-1zM15 26h1v1h-1zM16 26h1v1h-1zM19 26h1v1h-1zM20 26h1v1h-1zM21 26h1v1h-1zM23 26h1v1h-1zM25 26h1v1h-1zM28 26h1v1h-1zM31 26h1v1h-1zM32 26h1v1h-1zM33 26h1v1h-1zM37 26h1v1h-1zM40 26h1v1h-1zM41 26h1v1h-1zM5 25h1v1h-1zM6 25h1v1h-1zM7 25h1v1h-1zM11 25h1v1h-1zM15 25h1v1h-1zM16 25h1v1h-1zM17 25h1v1h-1zM18 25h1v1h-1zM19 25h1v1h-1zM21 25h1v1h-1zM22 25h1v1h-1zM26 25h1v1h-1zM27 25h1v1h-1zM29 25h1v1h-1zM30 25h1v1h-1zM31 25h1v1h-1zM32 25h1v1h-1zM34 25h1v1h-1zM35 25h1v1h-1zM37 25h1v1h-1zM39 25h1v1h-1zM6 24h1v1h-1zM7 24h1v1h-1zM9 24h1v1h-1zM12 24h1v1h-1zM14 24h1v1h-1zM15 24h1v1h-1zM16 24h1v1h-1zM18 24h1v1h-1zM20 24h1v1h-1zM21 24h1v1h-1zM22 24h1v1h-1zM24 24h1v1h-1zM25 24h1v1h-1zM26 24h1v1h-1zM31 24h1v1h-1zM33 24h1v1h-1zM38 24h1v1h-1zM8 23h1v1h-1zM11 23h1v1h-1zM14 23h1v1h-1zM17 23h1v1h-1zM18 23h1v1h-1zM22 23h1v1h-1zM24 23h1v1h-1zM25 23h1v1h-1zM28 23h1v1h-1zM29 23h1v1h-1zM30 23h1v1h-1zM32 23h1v1h-1zM33 23h1v1h-1zM34 23h1v1h-1zM36 23h1v1h-1zM39 23h1v1h-1zM40 23h1v1h-1zM41 23h1v1h-1zM5 22h1v1h-1zM9 22h1v1h-1zM12 22h1v1h-1zM15 22h1v1h-1zM17 22h1v1h-1zM18 22h1v1h-1zM20 22h1v1h-1zM21 22h1v1h-1zM25 22h1v1h-1zM26 22h1v1h-1zM28 22h1v1h-1zM31 22h1v1h-1zM33 22h1v1h-1zM34 22h1v1h-1zM37 22h1v1h-1zM40 22h1v1h-1zM6 21h1v1h-1zM7 21h1v1h-1zM9 21h1v1h-1zM11 21h1v1h-1zM13 21h1v1h-1zM25 21h1v1h-1zM27 21h1v1h-1zM28 21h1v1h-1zM29 21h1v1h-1zM30 21h1v1h-1zM31 21h1v1h-1zM34 21h1v1h-1zM35 21h1v1h-1zM36 21h1v1h-1zM37 21h1v1h-1zM39 21h1v1h-1zM41 21h1v1h-1zM5 20h1v1h-1zM6 20h1v1h-1zM8 20h1v1h-1zM9 20h1v1h-1zM10 20h1v1h-1zM12 20h1v1h-1zM13 20h1v1h-1zM15 20h1v1h-1zM20 20h1v1h-1zM21 20h1v1h-1zM22 20h1v1h-1zM24 20h1v1h-1zM26 20h1v1h-1zM28 20h1v1h-1zM29 20h1v1h-1zM30 20h1v1h-1zM36 20h1v1h-1zM38 20h1v1h-1zM5 19h1v1h-1zM7 19h1v1h-1zM8 19h1v1h-1zM9 19h1v1h-1zM10 19h1v1h-1zM11 19h1v1h-1zM12 19h1v1h-1zM16 19h1v1h-1zM17 19h1v1h-1zM19 19h1v1h-1zM21 19h1v1h-1zM22 19h1v1h-1zM24 19h1v1h-1zM25 19h1v1h-1zM26 19h1v1h-1zM27 19h1v1h-1zM30 19h1v1h-1zM31 19h1v1h-1zM32 19h1v1h-1zM35 19h1v1h-1zM39 19h1v1h-1zM40 19h1v1h-1zM41 19h1v1h-1zM9 18h1v1h-1zM13 18h1v1h-1zM16 18h1v1h-1zM17 18h1v1h-1zM18 18h1v1h-1zM19 18h1v1h-1zM20 18h1v1h-1zM22 18h1v1h-1zM24 18h1v1h-1zM26 18h1v1h-1zM27 18h1v1h-1zM28 18h1v1h-1zM30 18h1v1h-1zM34 18h1v1h-1zM35 18h1v1h-1zM36 18h1v1h-1zM38 18h1v1h-1zM40 18h1v1h-1zM5 17h1v1h-1zM6 17h1v1h-1zM7 17h1v1h-1zM9 17h1v1h-1zM11 17h1v1h-1zM12 17h1v1h-1zM13 17h1v1h-1zM15 17h1v1h-1zM16 17h1v1h-1zM19 17h1v1h-1zM20 17h1v1h-1zM21 17h1v1h-1zM24 17h1v1h-1zM25 17h1v1h-1zM27 17h1v1h-1zM29 17h1v1h-1zM31 17h1v1h-1zM34 17h1v1h-1zM35 17h1v1h-1zM36 17h1v1h-1zM37 17h1v1h-1zM38 17h1v1h-1zM39 17h1v1h-1zM41 17h1v1h-1zM5 16h1v1h-1zM6 16h1v1h-1zM9 16h1v1h-1zM13 16h1v1h-1zM17 16h1v1h-1zM18 16h1v1h-1zM22 16h1v1h-1zM23 16h1v1h-1zM26 16h1v1h-1zM28 16h1v1h-1zM32 16h1v1h-1zM36 16h1v1h-1zM38 16h1v1h-1zM40 16h1v1h-1zM5 15h1v1h-1zM8 15h1v1h-1zM9 15h1v1h-1zM10 15h1v1h-1zM11 15h1v1h-1zM14 15h1v1h-1zM16 15h1v1h-1zM17 15h1v1h-1zM18 15h1v1h-1zM23 15h1v1h-1zM29 15h1v1h-1zM30 15h1v1h-1zM31 15h1v1h-1zM32 15h1v1h-1zM35 15h1v1h-1zM37 15h1v1h-1zM40 15h1v1h-1zM41 15h1v1h-1zM5 14h1v1h-1zM7 14h1v1h-1zM9 14h1v1h-1zM10 14h1v1h-1zM12 14h1v1h-1zM13 14h1v1h-1zM14 14h1v1h-1zM16 14h1v1h-1zM17 14h1v1h-1zM21 14h1v1h-1zM22 14h1v1h-1zM23 14h1v1h-1zM24 14h1v1h-1zM26 14h1v1h-1zM27 14h1v1h-1zM28 14h1v1h-1zM29 14h1v1h-1zM31 14h1v1h-1zM32 14h1v1h-1zM33 14h1v1h-1zM34 14h1v1h-1zM36 14h1v1h-1zM37 14h1v1h-1zM40 14h1v1h-1zM5 13h1v1h-1zM7 13h1v1h-1zM11 13h1v1h-1zM13 13h1v1h-1zM16 13h1v1h-1zM20 13h1v1h-1zM21 13h1v1h-1zM25 13h1v1h-1zM27 13h1v1h-1zM30 13h1v1h-1zM31 13h1v1h-1zM33 13h1v1h-1zM34 13h1v1h-1zM35 13h1v1h-1zM36 13h1v1h-1zM37 13h1v1h-1zM38 13h1v1h-1zM39 13h1v1h-1zM41 13h1v1h-1zM13 12h1v1h-1zM14 12h1v1h-1zM15 12h1v1h-1zM16 12h1v1h-1zM17 12h1v1h-1zM18 12h1v1h-1zM20 12h1v1h-1zM21 12h1v1h-1zM25 12h1v1h-1zM26 12h1v1h-1zM27 12h1v1h-1zM28 12h1v1h-1zM31 12h1v1h-1zM32 12h1v1h-1zM33 12h1v1h-1zM37 12h1v1h-1zM5 11h1v1h-1zM6 11h1v1h-1zM7 11h1v1h-1zM8 11h1v1h-1zM9 11h1v1h-1zM10 11h1v1h-1zM11 11h1v1h-1zM13 11h1v1h-1zM18 11h1v1h-1zM20 11h1v1h-1zM21 11h1v1h-1zM22 11h1v1h-1zM23 11h1v1h-1zM24 11h1v1h-1zM25 11h1v1h-1zM26 11h1v1h-1zM33 11h1v1h-1zM35 11h1v1h-1zM37 11h1v1h-1zM38 11h1v1h-1zM40 11h1v1h-1zM41 11h1v1h-1zM5 10h1v1h-1zM11 10h1v1h-1zM13 10h1v1h-1zM15 10h1v1h-1zM17 10h1v1h-1zM20 10h1v1h-1zM21 10h1v1h-1zM24 10h1v1h-1zM25 10h1v1h-1zM26 10h1v1h-1zM27 10h1v1h-1zM28 10h1v1h-1zM33 10h1v1h-1zM37 10h1v1h-1zM40 10h1v1h-1zM41 10h1v1h-1zM5 9h1v1h-1zM7 9h1v1h-1zM8 9h1v1h-1zM9 9h1v1h-1zM11 9h1v1h-1zM13 9h1v1h-1zM16 9h1v1h-1zM17 9h1v1h-1zM18 9h1v1h-1zM21 9h1v1h-1zM22 9h1v1h-1zM23 9h1v1h-1zM24 9h1v1h-1zM26 9h1v1h-1zM30 9h1v1h-1zM31 9h1v1h-1zM32 9h1v1h-1zM33 9h1v1h-1zM34 9h1v1h-1zM35 9h1v1h-1zM36 9h1v1h-1zM37 9h1v1h-1zM39 9h1v1h-1zM40 9h1v1h-1zM41 9h1v1h-1zM5 8h1v1h-1zM7 8h1v1h-1zM8 8h1v1h-1zM9 8h1v1h-1zM11 8h1v1h-1zM13 8h1v1h-1zM15 8h1v1h-1zM16 8h1v1h-1zM17 8h1v1h-1zM19 8h1v1h-1zM20 8h1v1h-1zM21 8h1v1h-1zM23 8h1v1h-1zM25 8h1v1h-1zM26 8h1v1h-1zM27 8h1v1h-1zM29 8h1v1h-1zM31 8h1v1h-1zM32 8h1v1h-1zM35 8h1v1h-1zM37 8h1v1h-1zM40 8h1v1h-1zM5 7h1v1h-1zM7 7h1v1h-1zM8 7h1v1h-1zM9 7h1v1h-1zM11 7h1v1h-1zM13 7h1v1h-1zM14 7h1v1h-1zM16 7h1v1h-1zM17 7h1v1h-1zM22 7h1v1h-1zM23 7h1v1h-1zM24 7h1v1h-1zM33 7h1v1h-1zM34 7h1v1h-1zM36 7h1v1h-1zM38 7h1v1h-1zM41 7h1v1h-1zM5 6h1v1h-1zM11 6h1v1h-1zM13 6h1v1h-1zM15 6h1v1h-1zM16 6h1v1h-1zM18 6h1v1h-1zM20 6h1v1h-1zM22 6h1v1h-1zM23 6h1v1h-1zM24 6h1v1h-1zM25 6h1v1h-1zM26 6h1v1h-1zM27 6h1v1h-1zM29 6h1v1h-1zM31 6h1v1h-1zM32 6h1v1h-1zM33 6h1v1h-1zM35 6h1v1h-1zM36 6h1v1h-1zM37 6h1v1h-1zM41 6h1v1h-1zM5 5h1v1h-1zM6 5h1v1h-1zM7 5h1v1h-1zM8 5h1v1h-1zM9 5h1v1h-1zM10 5h1v1h-1zM11 5h1v1h-1zM14 5h1v1h-1zM15 5h1v1h-1zM21 5h1v1h-1zM22 5h1v1h-1zM23 5h1v1h-1zM24 5h1v1h-1zM30 5h1v1h-1zM31 5h1v1h-1zM34 5h1v1h-1zM36 5h1v1h-1zM37 5h1v1h-1zM38 5h1v1h-1zM39 5h1v1h-1zM40 5h1v1h-1zM41 5h1v1h-1z" fill="#000"/>
</svg>