<?xml version="1.0" encoding="UTF-8"?>
<!-- Encoded URL: https://www.reisti.com/products/hole-saw/tct#manual | Error correction: Q | Quiet zone: 4 modules -->
<svg xmlns="http://www.w3.org/2000/svg" width="25mm" height="25mm" viewBox="0 0 47 47" shape-rendering="crispEdges">
  <title>REISTI manual QR code</title>
  <rect width="47" height="47" fill="#fff"/>
  <path d="M5 41h1v1h-1zM6 41h1v1h-1zM7 41h1v1h-1zM8 41h1v1h-1zM9 41h1v1h-1zM10 41h1v1h-1zM11 41h1v1h-1zM14 41h1v1h-1zM16 41h1v1h-1zM17 41h1v1h-1zM18 41h1v1h-1zM19 41h1v1h-1zM20 41h1v1h-1zM21 41h1v1h-1zM23 41h1v1h-1zM24 41h1v1h-1zM25 41h1v1h-1zM27 41h1v1h-1zM29 41h1v1h-1zM30 41h1v1h-1zM35 41h1v1h-1zM36 41h1v1h-1zM37 41h1v1h-1zM38 41h1v1h-1zM39 41h1v1h-1zM40 41h1v1h-1zM41 41h1v1h-1zM5 40h1v1h-1zM11 40h1v1h-1zM13 40h1v1h-1zM14 40h1v1h-1zM16 40h1v1h-1zM18 40h1v1h-1zM19 40h1v1h-1zM22 40h1v1h-1zM23 40h1v1h-1zM26 40h1v1h-1zM27 40h1v1h-1zM28 40h1v1h-1zM29 40h1v1h-1zM33 40h1v1h-1zM35 40h1v1h-1zM41 40h1v1h-1zM5 39h1v1h-1zM7 39h1v1h-1zM8 39h1v1h-1zM9 39h1v1h-1zM11 39h1v1h-1zM13 39h1v1h-1zM15 39h1v1h-1zM16 39h1v1h-1zM17 39h1v1h-1zM18 39h1v1h-1zM20 39h1v1h-1zM21 39h1v1h-1zM23 39h1v1h-1zM27 39h1v1h-1zM30 39h1v1h-1zM31 39h1v1h-1zM35 39h1v1h-1zM37 39h1v1h-1zM38 39h1v1h-1zM39 39h1v1h-1zM41 39h1v1h-1zM5 38h1v1h-1zM7 38h1v1h-1zM8 38h1v1h-1zM9 38h1v1h-1zM11 38h1v1h-1zM15 38h1v1h-1zM16 38h1v1h-1zM17 38h1v1h-1zM19 38h1v1h-1zM21 38h1v1h-1zM22 38h1v1h-1zM24 38h1v1h-1zM27 38h1v1h-1zM30 38h1v1h-1zM31 38h1v1h-1zM35 38h1v1h-1zM37 38h1v1h-1zM38 38h1v1h-1zM39 38h1v1h-1zM41 38h1v1h-1zM5 37h1v1h-1zM7 37h1v1h-1zM8 37h1v1h-1zM9 37h1v1h-1zM11 37h1v1h-1zM14 37h1v1h-1zM15 37h1v1h-1zM16 37h1v1h-1zM17 37h1v1h-1zM18 37h1v1h-1zM20 37h1v1h-1zM21 37h1v1h-1zM22 37h1v1h-1zM25 37h1v1h-1zM27 37h1v1h-1zM29 37h1v1h-1zM32 37h1v1h-1zM35 37h1v1h-1zM37 37h1v1h-1zM38 37h1v1h-1zM39 37h1v1h-1zM41 37h1v1h-1zM5 36h1v1h-1zM11 36h1v1h-1zM18 36h1v1h-1zM21 36h1v1h-1zM22 36h1v1h-1zM25 36h1v1h-1zM29 36h1v1h-1zM30 36h1v1h-1zM35 36h1v1h-1zM41 36h1v1h-1zM5 35h1v1h-1zM6 35h1v1h-1zM7 35h1v1h-1zM8 35h1v1h-1zM9 35h1v1h-1zM10 35h1v1h-1zM11 35h1v1h-1zM13 35h1v1h-1zM15 35h1v1h-1zM17 35h1v1h-1zM19 35h1v1h-1zM21 35h1v1h-1zM23 35h1v1h-1zM25 35h1v1h-1zM27 35h1v1h-1zM29 35h1v1h-1zM31 35h1v1h-1zM33 35h1v1h-1zM35 35h1v1h-1zM36 35h1v1h-1zM37 35h1v1h-1zM38 35h1v1h-1zM39 35h1v1h-1zM40 35h1v1h-1zM41 35h1v1h-1zM16 34h1v1h-1zM17 34h1v1h-1zM18 34h1v1h-1zM20 34h1v1h-1zM21 34h1v1h-1zM23 34h1v1h-1zM24 34h1v1h-1zM25 34h1v1h-1zM29 34h1v1h-1zM32 34h1v1h-1zM33 34h1v1h-1zM6 33h1v1h-1zM7 33h1v1h-1zM8 33h1v1h-1zM10 33h1v1h-1zM11 33h1v1h-1zM15 33h1v1h-1zM16 33h1v1h-1zM22 33h1v1h-1zM23 33h1v1h-1zM24 33h1v1h-1zM26 33h1v1h-1zM28 33h1v1h-1zM30 33h1v1h-1zM32 33h1v1h-1zM33 33h1v1h-1zM39 33h1v1h-1zM40 33h1v1h-1zM5 32h1v1h-1zM7 32h1v1h-1zM9 32h1v1h-1zM10 32h1v1h-1zM12 32h1v1h-1zM14 32h1v1h-1zM15 32h1v1h-1zM18 32h1v1h-1zM23 32h1v1h-1zM26 32h1v1h-1zM27 32h1v1h-1zM28 32h1v1h-1zM30 32h1v1h-1zM31 32h1v1h-1zM32 32h1v1h-1zM33 32h1v1h-1zM36 32h1v1h-1zM39 32h1v1h-1zM40 32h1v1h-1zM6 31h1v1h-1zM7 31h1v1h-1zM8 31h1v1h-1zM10 31h1v1h-1zM11 31h1v1h-1zM13 31h1v1h-1zM14 31h1v1h-1zM15 31h1v1h-1zM17 31h1v1h-1zM19 31h1v1h-1zM20 31h1v1h-1zM21 31h1v1h-1zM22 31h1v1h-1zM24 31h1v1h-1zM27 31h1v1h-1zM28 31h1v1h-1zM29 31h1v1h-1zM30 31h1v1h-1zM32 31h1v1h-1zM34 31h1v1h-1zM36 31h1v1h-1zM37 31h1v1h-1zM38 31h1v1h-1zM8 30h1v1h-1zM10 30h1v1h-1zM12 30h1v1h-1zM15 30h1v1h-1zM18 30h1v1h-1zM21 30h1v1h-1zM27 30h1v1h-1zM28 30h1v1h-1zM29 30h1v1h-1zM30 30h1v1h-1zM31 30h1v1h-1zM32 30h1v1h-1zM38 30h1v1h-1zM39 30h1v1h-1zM6 29h1v1h-1zM8 29h1v1h-1zM11 29h1v1h-1zM15 29h1v1h-1zM17 29h1v1h-1zM21 29h1v1h-1zM22 29h1v1h-1zM23 29h1v1h-1zM27 29h1v1h-1zM28 29h1v1h-1zM29 29h1v1h-1zM30 29h1v1h-1zM31 29h1v1h-1zM34 29h1v1h-1zM35 29h1v1h-1zM37 29h1v1h-1zM38 29h1v1h-1zM39 29h1v1h-1zM40 29h1v1h-1zM41 29h1v1h-1zM5 28h1v1h-1zM7 28h1v1h-1zM8 28h1v1h-1zM9 28h1v1h-1zM13 28h1v1h-1zM14 28h1v1h-1zM15 28h1v1h-1zM19 28h1v1h-1zM21 28h1v1h-1zM25 28h1v1h-1zM26 28h1v1h-1zM30 28h1v1h-1zM32 28h1v1h-1zM35 28h1v1h-1zM36 28h1v1h-1zM37 28h1v1h-1zM39 28h1v1h-1zM41 28h1v1h-1zM7 27h1v1h-1zM10 27h1v1h-1zM11 27h1v1h-1zM15 27h1v1h-1zM16 27h1v1h-1zM20 27h1v1h-1zM21 27h1v1h-1zM23 27h1v1h-1zM25 27h1v1h-1zM26 27h1v1h-1zM29 27h1v1h-1zM31 27h1v1h-1zM34 27h1v1h-1zM35 27h1v1h-1zM36 27h1v1h-1zM39 27h1v1h-1zM40 27h1v1h-1zM6 26h1v1h-1zM7 26h1v1h-1zM8 26h1v1h-1zM9 26h1v1h-1zM12 26h1v1h-1zM13 26h1v1h-1zM14 26h1v1h-1zM15 26h1v1h-1zM16 26h1v1h-1zM19 26h1v1h-1zM23 26h1v1h-1zM25 26h1v1h-1zM28 26h1v1h-1zM31 26h1v1h-1zM32 26h1v1h-1zM33 26h1v1h-1zM37 26h1v1h-1zM40 26h1v1h-1zM41 26h1v1h-1zM6 25h1v1h-1zM7 25h1v1h-1zM8 25h1v1h-1zM10 25h1v1h-1zM11 25h1v1h-1zM13 25h1v1h-1zM14 25h1v1h-1zM15 25h1v1h-1zM18 25h1v1h-1zM20 25h1v1h-1zM21 25h1v1h-1zM23 25h1v1h-1zM25 25h1v1h-1zM27 25h1v1h-1zM28 25h1v1h-1zM30 25h1v1h-1zM38 25h1v1h-1zM39 25h1v1h-1zM40 25h1v1h-1zM41 25h1v1h-1zM5 24h1v1h-1zM7 24h1v1h-1zM8 24h1v1h-1zM16 24h1v1h-1zM17 24h1v1h-1zM18 24h1v1h-1zM22 24h1v1h-1zM23 24h1v1h-1zM25 24h1v1h-1zM27 24h1v1h-1zM29 24h1v1h-1zM30 24h1v1h-1zM31 24h1v1h-1zM32 24h1v1h-1zM35 24h1v1h-1zM36 24h1v1h-1zM39 24h1v1h-1zM41 24h1v1h-1zM5 23h1v1h-1zM6 23h1v1h-1zM8 23h1v1h-1zM11 23h1v1h-1zM14 23h1v1h-1zM17 23h1v1h-1zM22 23h1v1h-1zM24 23h1v1h-1zM25 23h1v1h-1zM28 23h1v1h-1zM29 23h1v1h-1zM30 23h1v1h-1zM32 23h1v1h-1zM33 23h1v1h-1zM34 23h1v1h-1zM36 23h1v1h-1zM39 23h1v1h-1zM40 23h1v1h-1zM41 23h1v1h-1zM6 22h1v1h-1zM7 22h1v1h-1zM8 22h1v1h-1zM9 22h1v1h-1zM10 22h1v1h-1zM12 22h1v1h-1zM13 22h1v1h-1zM14 22h1v1h-1zM15 22h1v1h-1zM16 22h1v1h-1zM18 22h1v1h-1zM19 22h1v1h-1zM21 22h1v1h-1zM22 22h1v1h-1zM23 22h1v1h-1zM29 22h1v1h-1zM32 22h1v1h-1zM33 22h1v1h-1zM35 22h1v1h-1zM38 22h1v1h-1zM41 22h1v1h-1zM6 21h1v1h-1zM7 21h1v1h-1zM8 21h1v1h-1zM11 21h1v1h-1zM12 21h1v1h-1zM14 21h1v1h-1zM15 21h1v1h-1zM17 21h1v1h-1zM20 21h1v1h-1zM21 21h1v1h-1zM23 21h1v1h-1zM24 21h1v1h-1zM26 21h1v1h-1zM28 21h1v1h-1zM31 21h1v1h-1zM32 21h1v1h-1zM33 21h1v1h-1zM34 21h1v1h-1zM37 21h1v1h-1zM38 21h1v1h-1zM5 20h1v1h-1zM8 20h1v1h-1zM9 20h1v1h-1zM10 20h1v1h-1zM15 20h1v1h-1zM17 20h1v1h-1zM20 20h1v1h-1zM21 20h1v1h-1zM22 20h1v1h-1zM24 20h1v1h-1zM26 20h1v1h-1zM28 20h1v1h-1zM29 20h1v1h-1zM30 20h1v1h-1zM36 20h1v1h-1zM38 20h1v1h-1zM9 19h1v1h-1zM11 19h1v1h-1zM14 19h1v1h-1zM17 19h1v1h-1zM20 19h1v1h-1zM21 19h1v1h-1zM23 19h1v1h-1zM24 19h1v1h-1zM25 19h1v1h-1zM27 19h1v1h-1zM28 19h1v1h-1zM29 19h1v1h-1zM30 19h1v1h-1zM34 19h1v1h-1zM37 19h1v1h-1zM38 19h1v1h-1zM39 19h1v1h-1zM5 18h1v1h-1zM6 18h1v1h-1zM8 18h1v1h-1zM13 18h1v1h-1zM14 18h1v1h-1zM15 18h1v1h-1zM19 18h1v1h-1zM21 18h1v1h-1zM22 18h1v1h-1zM23 18h1v1h-1zM28 18h1v1h-1zM29 18h1v1h-1zM32 18h1v1h-1zM33 18h1v1h-1zM34 18h1v1h-1zM39 18h1v1h-1zM40 18h1v1h-1zM41 18h1v1h-1zM5 17h1v1h-1zM6 17h1v1h-1zM7 17h1v1h-1zM9 17h1v1h-1zM11 17h1v1h-1zM12 17h1v1h-1zM13 17h1v1h-1zM15 17h1v1h-1zM19 17h1v1h-1zM20 17h1v1h-1zM21 17h1v1h-1zM25 17h1v1h-1zM27 17h1v1h-1zM29 17h1v1h-1zM31 17h1v1h-1zM34 17h1v1h-1zM35 17h1v1h-1zM36 17h1v1h-1zM37 17h1v1h-1zM38 17h1v1h-1zM39 17h1v1h-1zM41 17h1v1h-1zM6 16h1v1h-1zM7 16h1v1h-1zM8 16h1v1h-1zM9 16h1v1h-1zM10 16h1v1h-1zM14 16h1v1h-1zM16 16h1v1h-1zM18 16h1v1h-1zM19 16h1v1h-1zM20 16h1v1h-1zM25 16h1v1h-1zM29 16h1v1h-1zM31 16h1v1h-1zM34 16h1v1h-1zM35 16h1v1h-1zM36 16h1v1h-1zM37 16h1v1h-1zM41 16h1v1h-1zM6 15h1v1h-1zM10 15h1v1h-1zM11 15h1v1h-1zM12 15h1v1h-1zM14 15h1v1h-1zM16 15h1v1h-1zM20 15h1v1h-1zM21 15h1v1h-1zM22 15h1v1h-1zM23 15h1v1h-1zM24 15h1v1h-1zM26 15h1v1h-1zM27 15h1v1h-1zM31 15h1v1h-1zM33 15h1v1h-1zM36 15h1v1h-1zM37 15h1v1h-1zM38 15h1v1h-1zM39 15h1v1h-1zM40 15h1v1h-1zM5 14h1v1h-1zM7 14h1v1h-1zM9 14h1v1h-1zM10 14h1v1h-1zM12 14h1v1h-1zM13 14h1v1h-1zM14 14h1v1h-1zM16 14h1v1h-1zM17 14h1v1h-1zM21 14h1v1h-1zM24 14h1v1h-1zM26 14h1v1h-1zM27 14h1v1h-1zM28 14h1v1h-1zM29 14h1v1h-1zM31 14h1v1h-1zM32 14h1v1h-1zM33 14h1v1h-1zM34 14h1v1h-1zM36 14h1v1h-1zM37 14h1v1h-1zM40 14h1v1h-1zM8 13h1v1h-1zM11 13h1v1h-1zM14 13h1v1h-1zM15 13h1v1h-1zM17 13h1v1h-1zM19 13h1v1h-1zM22 13h1v1h-1zM23 13h1v1h-1zM26 13h1v1h-1zM27 13h1v1h-1zM28 13h1v1h-1zM29 13h1v1h-1zM30 13h1v1h-1zM32 13h1v1h-1zM33 13h1v1h-1zM34 13h1v1h-1zM35 13h1v1h-1zM36 13h1v1h-1zM37 13h1v1h-1zM39 13h1v1h-1zM40 13h1v1h-1zM13 12h1v1h-1zM16 12h1v1h-1zM20 12h1v1h-1zM21 12h1v1h-1zM23 12h1v1h-1zM24 12h1v1h-1zM25 12h1v1h-1zM28 12h1v1h-1zM29 12h1v1h-1zM30 12h1v1h-1zM31 12h1v1h-1zM33 12h1v1h-1zM37 12h1v1h-1zM38 12h1v1h-1zM39 12h1v1h-1zM41 12h1v1h-1zM5 11h1v1h-1zM6 11h1v1h-1zM7 11h1v1h-1zM8 11h1v1h-1zM9 11h1v1h-1zM10 11h1v1h-1zM11 11h1v1h-1zM18 11h1v1h-1zM20 11h1v1h-1zM21 11h1v1h-1zM22 11h1v1h-1zM23 11h1v1h-1zM24 11h1v1h-1zM25 11h1v1h-1zM26 11h1v1h-1zM33 11h1v1h-1zM35 11h1v1h-1zM37 11h1v1h-1zM38 11h1v1h-1zM40 11h1v1h-1zM41 11h1v1h-1zM5 10h1v1h-1zM11 10h1v1h-1zM13 10h1v1h-1zM14 10h1v1h-1zM15 10h1v1h-1zM16 10h1v1h-1zM19 10h1v1h-1zM21 10h1v1h-1zM22 10h1v1h-1zM23 10h1v1h-1zM24 10h1v1h-1zM27 10h1v1h-1zM29 10h1v1h-1zM31 10h1v1h-1zM32 10h1v1h-1zM33 10h1v1h-1zM37 10h1v1h-1zM38 10h1v1h-1zM5 9h1v1h-1zM7 9h1v1h-1zM8 9h1v1h-1zM9 9h1v1h-1zM11 9h1v1h-1zM14 9h1v1h-1zM15 9h1v1h-1zM16 9h1v1h-1zM22 9h1v1h-1zM27 9h1v1h-1zM29 9h1v1h-1zM31 9h1v1h-1zM33 9h1v1h-1zM34 9h1v1h-1zM35 9h1v1h-1zM36 9h1v1h-1zM37 9h1v1h-1zM38 9h1v1h-1zM40 9h1v1h-1zM5 8h1v1h-1zM7 8h1v1h-1zM8 8h1v1h-1zM9 8h1v1h-1zM11 8h1v1h-1zM13 8h1v1h-1zM15 8h1v1h-1zM16 8h1v1h-1zM17 8h1v1h-1zM18 8h1v1h-1zM19 8h1v1h-1zM20 8h1v1h-1zM21 8h1v1h-1zM23 8h1v1h-1zM25 8h1v1h-1zM26 8h1v1h-1zM27 8h1v1h-1zM29 8h1v1h-1zM31 8h1v1h-1zM32 8h1v1h-1zM35 8h1v1h-1zM37 8h1v1h-1zM40 8h1v1h-1zM5 7h1v1h-1zM7 7h1v1h-1zM8 7h1v1h-1zM9 7h1v1h-1zM11 7h1v1h-1zM13 7h1v1h-1zM19 7h1v1h-1zM20 7h1v1h-1zM24 7h1v1h-1zM25 7h1v1h-1zM27 7h1v1h-1zM28 7h1v1h-1zM29 7h1v1h-1zM31 7h1v1h-1zM32 7h1v1h-1zM33 7h1v1h-1zM35 7h1v1h-1zM36 7h1v1h-1zM37 7h1v1h-1zM40 7h1v1h-1zM5 6h1v1h-1zM11 6h1v1h-1zM13 6h1v1h-1zM14 6h1v1h-1zM16 6h1v1h-1zM17 6h1v1h-1zM18 6h1v1h-1zM19 6h1v1h-1zM21 6h1v1h-1zM22 6h1v1h-1zM25 6h1v1h-1zM27 6h1v1h-1zM30 6h1v1h-1zM31 6h1v1h-1zM37 6h1v1h-1zM38 6h1v1h-1zM39 6h1v1h-1zM5 5h1v1h-1zM6 5h1v1h-1zM7 5h1v1h-1zM8 5h1v1h-1zM9 5h1v1h-1zM10 5h1v1h-1zM11 5h1v1h-1zM14 5h1v1h-1zM15 5h1v1h-1zM17 5h1v1h-1zM21 5h1v1h-1zM22 5h1v1h-1zM23 5h1v1h-1zM24 5h1v1h-1zM30 5h1v1h-1zM31 5h1v1h-1zM34 5h1v1h-1zM36 5h1v1h-1zM37 5h1v1h-1zM38 5h1v1h-1zM39 5h1v1h-1zM40 5h1v1h-1zM41 5h1v1h-1z" fill="#000"/>
</svg>